<mxfile host="app.diagrams.net" modified="2024-05-02T13:58:34.746Z" agent="Mozilla/5.0 (Windows NT 10.0; Win64; x64) AppleWebKit/537.36 (KHTML, like Gecko) Chrome/122.0.0.0 Safari/537.36" etag="7-Z08XhFK5CwsNm8ZcS7" version="23.0.1" type="device" pages="2">
  <diagram name="Page-1" id="AGTM7fwZfRJB2eIQedqC">
    <mxGraphModel dx="1390" dy="775" grid="1" gridSize="10" guides="1" tooltips="1" connect="1" arrows="1" fold="1" page="1" pageScale="1" pageWidth="827" pageHeight="1169" math="0" shadow="0">
      <root>
        <mxCell id="0" />
        <mxCell id="1" parent="0" />
        <mxCell id="6Ni9g9kHz7oEFQZ4ZGgN-1" value="&lt;b&gt;&lt;font style=&quot;font-size: 17px;&quot;&gt;Nhập vào 1 số nguyên n. In ra kết quả bình phương của n&lt;/font&gt;&lt;/b&gt;" style="text;html=1;strokeColor=none;fillColor=none;align=center;verticalAlign=middle;whiteSpace=wrap;rounded=0;" vertex="1" parent="1">
          <mxGeometry x="179" y="10" width="470" height="30" as="geometry" />
        </mxCell>
        <mxCell id="6Ni9g9kHz7oEFQZ4ZGgN-2" value="&lt;font style=&quot;font-size: 20px;&quot;&gt;START&lt;/font&gt;" style="ellipse;whiteSpace=wrap;html=1;" vertex="1" parent="1">
          <mxGeometry x="334" y="60" width="160" height="110" as="geometry" />
        </mxCell>
        <mxCell id="6Ni9g9kHz7oEFQZ4ZGgN-3" value="&lt;font style=&quot;font-size: 20px;&quot;&gt;INPUT n&lt;/font&gt;" style="shape=parallelogram;perimeter=parallelogramPerimeter;whiteSpace=wrap;html=1;fixedSize=1;" vertex="1" parent="1">
          <mxGeometry x="320" y="220" width="190" height="70" as="geometry" />
        </mxCell>
        <mxCell id="6Ni9g9kHz7oEFQZ4ZGgN-4" value="&lt;font style=&quot;font-size: 20px;&quot;&gt;result = n * n&lt;/font&gt;" style="rounded=0;whiteSpace=wrap;html=1;" vertex="1" parent="1">
          <mxGeometry x="346" y="340" width="136" height="80" as="geometry" />
        </mxCell>
        <mxCell id="6Ni9g9kHz7oEFQZ4ZGgN-5" value="&lt;font style=&quot;font-size: 20px;&quot;&gt;OUTPUT result&lt;/font&gt;" style="shape=parallelogram;perimeter=parallelogramPerimeter;whiteSpace=wrap;html=1;fixedSize=1;" vertex="1" parent="1">
          <mxGeometry x="324" y="470" width="180" height="70" as="geometry" />
        </mxCell>
        <mxCell id="6Ni9g9kHz7oEFQZ4ZGgN-6" value="&lt;font style=&quot;font-size: 20px;&quot;&gt;END&lt;/font&gt;" style="ellipse;whiteSpace=wrap;html=1;" vertex="1" parent="1">
          <mxGeometry x="334" y="590" width="160" height="110" as="geometry" />
        </mxCell>
        <mxCell id="6Ni9g9kHz7oEFQZ4ZGgN-7" value="" style="endArrow=classic;html=1;rounded=0;" edge="1" parent="1" source="6Ni9g9kHz7oEFQZ4ZGgN-2" target="6Ni9g9kHz7oEFQZ4ZGgN-3">
          <mxGeometry width="50" height="50" relative="1" as="geometry">
            <mxPoint x="130" y="260" as="sourcePoint" />
            <mxPoint x="180" y="210" as="targetPoint" />
          </mxGeometry>
        </mxCell>
        <mxCell id="6Ni9g9kHz7oEFQZ4ZGgN-8" value="" style="endArrow=classic;html=1;rounded=0;" edge="1" parent="1" source="6Ni9g9kHz7oEFQZ4ZGgN-3" target="6Ni9g9kHz7oEFQZ4ZGgN-4">
          <mxGeometry width="50" height="50" relative="1" as="geometry">
            <mxPoint x="70" y="340" as="sourcePoint" />
            <mxPoint x="120" y="290" as="targetPoint" />
          </mxGeometry>
        </mxCell>
        <mxCell id="6Ni9g9kHz7oEFQZ4ZGgN-9" value="" style="endArrow=classic;html=1;rounded=0;" edge="1" parent="1" source="6Ni9g9kHz7oEFQZ4ZGgN-4" target="6Ni9g9kHz7oEFQZ4ZGgN-5">
          <mxGeometry width="50" height="50" relative="1" as="geometry">
            <mxPoint x="150" y="450" as="sourcePoint" />
            <mxPoint x="200" y="400" as="targetPoint" />
          </mxGeometry>
        </mxCell>
        <mxCell id="6Ni9g9kHz7oEFQZ4ZGgN-10" value="" style="endArrow=classic;html=1;rounded=0;" edge="1" parent="1" source="6Ni9g9kHz7oEFQZ4ZGgN-5" target="6Ni9g9kHz7oEFQZ4ZGgN-6">
          <mxGeometry width="50" height="50" relative="1" as="geometry">
            <mxPoint x="100" y="550" as="sourcePoint" />
            <mxPoint x="150" y="500" as="targetPoint" />
          </mxGeometry>
        </mxCell>
      </root>
    </mxGraphModel>
  </diagram>
  <diagram id="BsHccMRhcIMibl3CY7x5" name="Page-2">
    <mxGraphModel dx="1390" dy="775" grid="1" gridSize="10" guides="1" tooltips="1" connect="1" arrows="1" fold="1" page="1" pageScale="1" pageWidth="827" pageHeight="1169" math="0" shadow="0">
      <root>
        <mxCell id="0" />
        <mxCell id="1" parent="0" />
        <mxCell id="qkjsYKhRjDsD3m-z9oLd-1" value="&lt;b&gt;&lt;font style=&quot;font-size: 17px;&quot;&gt;Nhập vào chiều dài, chiều rộng của Hình chữ nhật. In ra chu vi, diện tích.&lt;/font&gt;&lt;/b&gt;" style="text;html=1;strokeColor=none;fillColor=none;align=center;verticalAlign=middle;whiteSpace=wrap;rounded=0;" vertex="1" parent="1">
          <mxGeometry x="118" y="10" width="591" height="30" as="geometry" />
        </mxCell>
        <mxCell id="qkjsYKhRjDsD3m-z9oLd-2" value="&lt;font style=&quot;font-size: 20px;&quot;&gt;START&lt;/font&gt;" style="ellipse;whiteSpace=wrap;html=1;" vertex="1" parent="1">
          <mxGeometry x="334" y="60" width="160" height="110" as="geometry" />
        </mxCell>
        <mxCell id="qkjsYKhRjDsD3m-z9oLd-3" value="&lt;font style=&quot;font-size: 20px;&quot;&gt;INPUT cd, cr&lt;/font&gt;" style="shape=parallelogram;perimeter=parallelogramPerimeter;whiteSpace=wrap;html=1;fixedSize=1;" vertex="1" parent="1">
          <mxGeometry x="320" y="220" width="190" height="70" as="geometry" />
        </mxCell>
        <mxCell id="qkjsYKhRjDsD3m-z9oLd-12" style="edgeStyle=orthogonalEdgeStyle;rounded=0;orthogonalLoop=1;jettySize=auto;html=1;exitX=0.5;exitY=1;exitDx=0;exitDy=0;entryX=0.5;entryY=0;entryDx=0;entryDy=0;" edge="1" parent="1" source="qkjsYKhRjDsD3m-z9oLd-4" target="qkjsYKhRjDsD3m-z9oLd-11">
          <mxGeometry relative="1" as="geometry" />
        </mxCell>
        <mxCell id="qkjsYKhRjDsD3m-z9oLd-4" value="&lt;font style=&quot;font-size: 20px;&quot;&gt;P = (cd + cr) * 2&lt;br&gt;&lt;/font&gt;" style="rounded=0;whiteSpace=wrap;html=1;" vertex="1" parent="1">
          <mxGeometry x="320" y="340" width="190" height="80" as="geometry" />
        </mxCell>
        <mxCell id="qkjsYKhRjDsD3m-z9oLd-14" style="edgeStyle=orthogonalEdgeStyle;rounded=0;orthogonalLoop=1;jettySize=auto;html=1;exitX=0.5;exitY=1;exitDx=0;exitDy=0;entryX=0.5;entryY=0;entryDx=0;entryDy=0;" edge="1" parent="1" source="qkjsYKhRjDsD3m-z9oLd-5" target="qkjsYKhRjDsD3m-z9oLd-6">
          <mxGeometry relative="1" as="geometry" />
        </mxCell>
        <mxCell id="qkjsYKhRjDsD3m-z9oLd-5" value="&lt;font style=&quot;font-size: 20px;&quot;&gt;OUTPUT P, S&lt;br&gt;&lt;/font&gt;" style="shape=parallelogram;perimeter=parallelogramPerimeter;whiteSpace=wrap;html=1;fixedSize=1;" vertex="1" parent="1">
          <mxGeometry x="325" y="600" width="180" height="70" as="geometry" />
        </mxCell>
        <mxCell id="qkjsYKhRjDsD3m-z9oLd-6" value="&lt;font style=&quot;font-size: 20px;&quot;&gt;END&lt;/font&gt;" style="ellipse;whiteSpace=wrap;html=1;" vertex="1" parent="1">
          <mxGeometry x="335" y="720" width="160" height="110" as="geometry" />
        </mxCell>
        <mxCell id="qkjsYKhRjDsD3m-z9oLd-7" value="" style="endArrow=classic;html=1;rounded=0;" edge="1" parent="1" source="qkjsYKhRjDsD3m-z9oLd-2" target="qkjsYKhRjDsD3m-z9oLd-3">
          <mxGeometry width="50" height="50" relative="1" as="geometry">
            <mxPoint x="130" y="260" as="sourcePoint" />
            <mxPoint x="180" y="210" as="targetPoint" />
          </mxGeometry>
        </mxCell>
        <mxCell id="qkjsYKhRjDsD3m-z9oLd-8" value="" style="endArrow=classic;html=1;rounded=0;" edge="1" parent="1" source="qkjsYKhRjDsD3m-z9oLd-3" target="qkjsYKhRjDsD3m-z9oLd-4">
          <mxGeometry width="50" height="50" relative="1" as="geometry">
            <mxPoint x="70" y="340" as="sourcePoint" />
            <mxPoint x="120" y="290" as="targetPoint" />
          </mxGeometry>
        </mxCell>
        <mxCell id="qkjsYKhRjDsD3m-z9oLd-13" style="edgeStyle=orthogonalEdgeStyle;rounded=0;orthogonalLoop=1;jettySize=auto;html=1;exitX=0.5;exitY=1;exitDx=0;exitDy=0;" edge="1" parent="1" source="qkjsYKhRjDsD3m-z9oLd-11" target="qkjsYKhRjDsD3m-z9oLd-5">
          <mxGeometry relative="1" as="geometry" />
        </mxCell>
        <mxCell id="qkjsYKhRjDsD3m-z9oLd-11" value="&lt;font style=&quot;font-size: 20px;&quot;&gt;S = cd * cr&lt;br&gt;&lt;/font&gt;" style="rounded=0;whiteSpace=wrap;html=1;" vertex="1" parent="1">
          <mxGeometry x="320" y="470" width="190" height="80" as="geometry" />
        </mxCell>
      </root>
    </mxGraphModel>
  </diagram>
</mxfile>
